<mxfile host="65bd71144e" modified="2021-01-19T10:10:20.247Z" agent="5.0 (Macintosh; Intel Mac OS X 11_0_0) AppleWebKit/537.36 (KHTML, like Gecko) Code/1.52.1 Chrome/83.0.4103.122 Electron/9.3.5 Safari/537.36" version="13.10.0" etag="XbBPJ9Fj4o26oJEJ4RIz" type="embed">
    <diagram id="DhgbOMzTf1fG5ZaioGR8" name="Page-1">
        <mxGraphModel dx="1440" dy="1720" grid="1" gridSize="10" guides="1" tooltips="1" connect="1" arrows="1" fold="1" page="1" pageScale="1" pageWidth="850" pageHeight="1100" background="#DAD2D8" math="0" shadow="0">
            <root>
                <mxCell id="0"/>
                <mxCell id="1" parent="0"/>
                <mxCell id="4" value="" style="edgeStyle=orthogonalEdgeStyle;rounded=0;orthogonalLoop=1;jettySize=auto;html=1;labelBackgroundColor=#DAD2D8;strokeColor=#A8201A;fontColor=#143642;" edge="1" parent="1" source="2" target="3">
                    <mxGeometry relative="1" as="geometry"/>
                </mxCell>
                <mxCell id="2" value="数据" style="rounded=0;whiteSpace=wrap;html=1;fillColor=#FAE5C7;strokeColor=#0F8B8D;fontColor=#143642;fontSize=20;" vertex="1" parent="1">
                    <mxGeometry x="100" y="190" width="120" height="60" as="geometry"/>
                </mxCell>
                <mxCell id="6" value="" style="edgeStyle=orthogonalEdgeStyle;rounded=0;orthogonalLoop=1;jettySize=auto;html=1;labelBackgroundColor=#DAD2D8;strokeColor=#A8201A;fontColor=#143642;" edge="1" parent="1" source="3" target="5">
                    <mxGeometry relative="1" as="geometry"/>
                </mxCell>
                <mxCell id="3" value="解协议" style="rounded=0;whiteSpace=wrap;html=1;fontSize=19;fillColor=#FAE5C7;strokeColor=#0F8B8D;fontColor=#143642;" vertex="1" parent="1">
                    <mxGeometry x="100" y="330" width="120" height="60" as="geometry"/>
                </mxCell>
                <mxCell id="8" value="" style="edgeStyle=orthogonalEdgeStyle;rounded=0;orthogonalLoop=1;jettySize=auto;html=1;labelBackgroundColor=#DAD2D8;strokeColor=#A8201A;fontColor=#143642;" edge="1" parent="1" source="5" target="7">
                    <mxGeometry relative="1" as="geometry"/>
                </mxCell>
                <mxCell id="5" value="封装数据格式" style="rounded=0;whiteSpace=wrap;html=1;fillColor=#FAE5C7;strokeColor=#0F8B8D;fontColor=#143642;fontSize=16;" vertex="1" parent="1">
                    <mxGeometry x="100" y="470" width="120" height="60" as="geometry"/>
                </mxCell>
                <mxCell id="10" value="" style="edgeStyle=orthogonalEdgeStyle;rounded=0;orthogonalLoop=1;jettySize=auto;html=1;labelBackgroundColor=#DAD2D8;strokeColor=#A8201A;fontColor=#143642;" edge="1" parent="1" source="7" target="9">
                    <mxGeometry relative="1" as="geometry"/>
                </mxCell>
                <mxCell id="12" value="" style="edgeStyle=orthogonalEdgeStyle;rounded=0;orthogonalLoop=1;jettySize=auto;html=1;labelBackgroundColor=#DAD2D8;strokeColor=#A8201A;fontColor=#143642;" edge="1" parent="1" source="7" target="11">
                    <mxGeometry relative="1" as="geometry"/>
                </mxCell>
                <mxCell id="7" value="解封装" style="rounded=0;whiteSpace=wrap;html=1;fontSize=19;fillColor=#FAE5C7;strokeColor=#0F8B8D;fontColor=#143642;" vertex="1" parent="1">
                    <mxGeometry x="100" y="610" width="120" height="30" as="geometry"/>
                </mxCell>
                <mxCell id="14" value="" style="edgeStyle=orthogonalEdgeStyle;rounded=0;orthogonalLoop=1;jettySize=auto;html=1;labelBackgroundColor=#DAD2D8;strokeColor=#A8201A;fontColor=#143642;" edge="1" parent="1" source="9" target="13">
                    <mxGeometry relative="1" as="geometry"/>
                </mxCell>
                <mxCell id="9" value="音频数据" style="rounded=0;whiteSpace=wrap;html=1;fillColor=#FAE5C7;strokeColor=#0F8B8D;fontColor=#143642;fontSize=16;" vertex="1" parent="1">
                    <mxGeometry x="10" y="750" width="120" height="60" as="geometry"/>
                </mxCell>
                <mxCell id="16" value="" style="edgeStyle=orthogonalEdgeStyle;rounded=0;orthogonalLoop=1;jettySize=auto;html=1;labelBackgroundColor=#DAD2D8;strokeColor=#A8201A;fontColor=#143642;" edge="1" parent="1" source="11" target="15">
                    <mxGeometry relative="1" as="geometry"/>
                </mxCell>
                <mxCell id="11" value="视频数据" style="rounded=0;whiteSpace=wrap;html=1;fillColor=#FAE5C7;strokeColor=#0F8B8D;fontColor=#143642;fontSize=17;" vertex="1" parent="1">
                    <mxGeometry x="180" y="750" width="120" height="60" as="geometry"/>
                </mxCell>
                <mxCell id="18" value="" style="edgeStyle=orthogonalEdgeStyle;rounded=0;orthogonalLoop=1;jettySize=auto;html=1;labelBackgroundColor=#DAD2D8;strokeColor=#A8201A;fontColor=#143642;" edge="1" parent="1" source="13" target="17">
                    <mxGeometry relative="1" as="geometry"/>
                </mxCell>
                <mxCell id="13" value="音频解码" style="rounded=0;whiteSpace=wrap;html=1;fontSize=18;fillColor=#FAE5C7;strokeColor=#0F8B8D;fontColor=#143642;" vertex="1" parent="1">
                    <mxGeometry x="10" y="890" width="120" height="60" as="geometry"/>
                </mxCell>
                <mxCell id="20" value="" style="edgeStyle=orthogonalEdgeStyle;rounded=0;orthogonalLoop=1;jettySize=auto;html=1;labelBackgroundColor=#DAD2D8;strokeColor=#A8201A;fontColor=#143642;" edge="1" parent="1" source="15" target="19">
                    <mxGeometry relative="1" as="geometry"/>
                </mxCell>
                <mxCell id="15" value="视频解码" style="rounded=0;whiteSpace=wrap;html=1;fontSize=17;fillColor=#FAE5C7;strokeColor=#0F8B8D;fontColor=#143642;" vertex="1" parent="1">
                    <mxGeometry x="180" y="890" width="120" height="60" as="geometry"/>
                </mxCell>
                <mxCell id="22" value="" style="edgeStyle=orthogonalEdgeStyle;rounded=0;orthogonalLoop=1;jettySize=auto;html=1;labelBackgroundColor=#DAD2D8;strokeColor=#A8201A;fontColor=#143642;" edge="1" parent="1" source="17" target="21">
                    <mxGeometry relative="1" as="geometry"/>
                </mxCell>
                <mxCell id="17" value="音频采样数据" style="rounded=0;whiteSpace=wrap;html=1;fillColor=#FAE5C7;strokeColor=#0F8B8D;fontColor=#143642;fontSize=17;" vertex="1" parent="1">
                    <mxGeometry x="10" y="1030" width="120" height="60" as="geometry"/>
                </mxCell>
                <mxCell id="24" style="edgeStyle=orthogonalEdgeStyle;rounded=0;orthogonalLoop=1;jettySize=auto;html=1;exitX=0.5;exitY=1;exitDx=0;exitDy=0;entryX=0.52;entryY=-0.05;entryDx=0;entryDy=0;entryPerimeter=0;labelBackgroundColor=#DAD2D8;strokeColor=#A8201A;fontColor=#143642;" edge="1" parent="1" source="19" target="23">
                    <mxGeometry relative="1" as="geometry"/>
                </mxCell>
                <mxCell id="19" value="视频像素数据" style="whiteSpace=wrap;html=1;rounded=0;fillColor=#FAE5C7;strokeColor=#0F8B8D;fontColor=#143642;fontSize=17;" vertex="1" parent="1">
                    <mxGeometry x="180" y="1030" width="120" height="60" as="geometry"/>
                </mxCell>
                <mxCell id="21" value="" style="html=1;verticalLabelPosition=bottom;align=center;verticalAlign=top;strokeWidth=2;strokeColor=#0F8B8D;shadow=0;dashed=0;shape=mxgraph.ios7.icons.loud;labelBackgroundColor=#DAD2D8;fillColor=#FAE5C7;fontColor=#143642;" vertex="1" parent="1">
                    <mxGeometry x="27.35" y="1190" width="85.3" height="90" as="geometry"/>
                </mxCell>
                <mxCell id="23" value="" style="html=1;verticalLabelPosition=bottom;align=center;verticalAlign=top;strokeWidth=2;strokeColor=#0F8B8D;shadow=0;dashed=0;shape=mxgraph.ios7.icons.move_to_folder;labelBackgroundColor=#DAD2D8;fillColor=#FAE5C7;fontColor=#143642;" vertex="1" parent="1">
                    <mxGeometry x="190" y="1195" width="100" height="80" as="geometry"/>
                </mxCell>
                <mxCell id="25" value="协议层&lt;br style=&quot;font-size: 18px;&quot;&gt;HTTP、RTMP" style="text;html=1;align=center;verticalAlign=middle;resizable=0;points=[];autosize=1;fontColor=#143642;fontSize=18;" vertex="1" parent="1">
                    <mxGeometry x="285" y="195" width="130" height="50" as="geometry"/>
                </mxCell>
                <mxCell id="26" value="&lt;font color=&quot;#3399ff&quot;&gt;封装数据层&lt;br&gt;FLV、MP4&lt;/font&gt;" style="text;html=1;align=center;verticalAlign=middle;resizable=0;points=[];autosize=1;fontSize=20;fontColor=#143642;" vertex="1" parent="1">
                    <mxGeometry x="300" y="465" width="120" height="50" as="geometry"/>
                </mxCell>
                <mxCell id="28" value="&lt;font color=&quot;#3399ff&quot; style=&quot;font-size: 26px&quot;&gt;编解码层&lt;br&gt;AAC、Mp3&lt;/font&gt;" style="text;html=1;align=center;verticalAlign=middle;resizable=0;points=[];autosize=1;fontSize=20;fontColor=#143642;" vertex="1" parent="1">
                    <mxGeometry x="-230" y="750" width="150" height="60" as="geometry"/>
                </mxCell>
                <mxCell id="29" value="&lt;font color=&quot;#3399ff&quot; style=&quot;font-size: 26px&quot;&gt;编解码层&lt;br&gt;h264、h265、MPEG4&lt;br&gt;&lt;/font&gt;" style="text;html=1;align=center;verticalAlign=middle;resizable=0;points=[];autosize=1;fontSize=20;fontColor=#143642;" vertex="1" parent="1">
                    <mxGeometry x="370" y="750" width="270" height="60" as="geometry"/>
                </mxCell>
                <mxCell id="30" value="&lt;font color=&quot;#3399ff&quot; style=&quot;font-size: 23px;&quot;&gt;PCM&lt;/font&gt;" style="text;html=1;align=center;verticalAlign=middle;resizable=0;points=[];autosize=1;fontSize=23;fontColor=#143642;" vertex="1" parent="1">
                    <mxGeometry x="-215" y="1045" width="70" height="30" as="geometry"/>
                </mxCell>
                <mxCell id="31" value="&lt;font&gt;YUV&lt;/font&gt;" style="text;html=1;align=center;verticalAlign=middle;resizable=0;points=[];autosize=1;fontSize=20;fontColor=#143642;" vertex="1" parent="1">
                    <mxGeometry x="440" y="1045" width="60" height="30" as="geometry"/>
                </mxCell>
            </root>
        </mxGraphModel>
    </diagram>
</mxfile>